#!OML:ASF I:\golf\golf\golf 2\Subject 1\2002-09-07\Subject1.ASF
:FULLY-SPECIFIED
:DEGREES
367
root 2.16338 10.3275 -2.05295 12.306 -7.01545 -4.36471
lowerback 41.107 8.17643 3.72988
upperback 17.378 11.1998 6.74147
thorax -0.83371 5.16647 1.33474
lowerneck -5.57797 -6.80831 0.788985
upperneck 27.2185 -5.89713 -13.7057
head 8.90835 -3.81601 -5.35051
rclavicle 8.26944e-014 2.3059e-014
rhumerus 24.3327 -0.82763 -76.6229
rradius 32.2382
rwrist 0.156953
rhand -46.8527 18.3777
rfingers 7.12502
rthumb -19.5657 -10.6578
lclavicle 8.26944e-014 2.3059e-014
lhumerus -36.0887 -43.2745 96.0738
lradius 98.5555
lwrist -31.1553
lhand -52.2845 30.0495
lfingers 7.12502
lthumb -24.7802 58.4641
rfemur -92.9775 -61.7639 36.101
rtibia 136.165
rfoot -29.1942 16.6248
rtoes -16.6629
lfemur -96.1849 19.9308 -21.6633
ltibia 127.399
lfoot -30.3746 -15.9109
ltoes -16.3593
368
root 2.15767 10.3457 -2.0621 12.3041 -6.96335 -4.24451
lowerback 41.2573 8.20505 3.62951
upperback 17.3362 11.2076 6.73359
thorax -0.939024 5.16137 1.35544
lowerneck -5.51355 -6.82473 0.778453
upperneck 27.1598 -5.92523 -13.701
head 8.87381 -3.82655 -5.34177
rclavicle -1.59028e-014 -3.33958e-014
rhumerus 24.73 -0.38566 -76.2619
rradius 31.5056
rwrist -1.38411
rhand -47.228 19.2997
rfingers 7.12502
rthumb -19.9264 -9.69871
lclavicle -1.59028e-014 -3.33958e-014
lhumerus -36.2059 -43.3928 96.2384
lradius 98.6161
lwrist -31.0273
lhand -52.0528 30.7318
lfingers 7.12502
lthumb -24.5581 59.1768
rfemur -92.9432 -61.5532 36.0323
rtibia 136.037
rfoot -29.0531 16.503
rtoes -16.8026
lfemur -96.0572 19.7209 -21.6692
ltibia 127.18
lfoot -30.2519 -15.9444
ltoes -16.0708
369
root 2.15281 10.3588 -2.06837 12.4203 -6.91993 -4.15466
lowerback 41.1431 8.23924 3.53624
upperback 17.3239 11.2163 6.7341
thorax -0.936508 5.16322 1.40377
lowerneck -5.36743 -6.86766 0.711143
upperneck 27.1282 -5.99069 -13.6454
head 8.83522 -3.85206 -5.3059
rclavicle -1.59028e-014 -2.3059e-014
rhumerus 24.5957 -3.02702 -78.4297
rradius 32.375
rwrist 1.20485
rhand -46.5581 18.9992
rfingers 7.12502
rthumb -19.2824 -10.0648
lclavicle -1.59028e-014 -2.3059e-014
lhumerus -36.2592 -43.5143 96.3612
lradius 98.6576
lwrist -30.7941
lhand -51.8213 31.0284
lfingers 7.12502
lthumb -24.3362 59.5034
rfemur -93.1041 -61.2021 36.113
rtibia 135.944
rfoot -28.9885 16.2431
rtoes -17.1412
lfemur -96.0815 19.5477 -21.693
ltibia 127.006
lfoot -30.1683 -15.9555
ltoes -15.858
370
root 2.15004 10.3799 -2.06963 12.4826 -6.92882 -4.19174
lowerback 41.1232 8.24401 3.53679
upperback 17.3057 11.222 6.72624
thorax -0.94938 5.16587 1.39314
lowerneck -5.37143 -6.84248 0.616254
upperneck 27.2102 -5.94558 -13.586
head 8.87619 -3.83517 -5.27222
rclavicle 3.18055e-015 -2.38542e-015
rhumerus 24.8104 -3.92981 -79.2472
rradius 32.3072
rwrist 1.94228
rhand -46.1973 18.6604
rfingers 7.12502
rthumb -18.9354 -10.4379
lclavicle 3.18055e-015 -2.38542e-015
lhumerus -36.2733 -43.4304 96.3538
lradius 98.5628
lwrist -30.9429
lhand -52.0541 31.1172
lfingers 7.12502
lthumb -24.5594 59.562
rfemur -92.7711 -60.7473 35.9338
rtibia 135.776
rfoot -28.9961 16.053
rtoes -17.1365
lfemur -95.9615 19.5612 -21.6214
ltibia 126.829
lfoot -30.2858 -15.8823
ltoes -15.9566
371
root 2.14536 10.4035 -2.07239 12.5027 -6.85623 -4.26138
lowerback 41.2055 8.26598 3.65051
upperback 17.2703 11.2954 6.75323
thorax -0.999713 5.20361 1.33177
lowerneck -5.44459 -6.87779 0.641042
upperneck 27.3058 -5.99635 -13.5409
head 8.91973 -3.85402 -5.27378
rclavicle 0 -3.97569e-015
rhumerus 25.1777 -3.70698 -78.923
rradius 31.341
rwrist 1.44811
rhand -46.8199 19.2067
rfingers 7.12502
rthumb -19.5341 -9.83202
lclavicle 0 -3.97569e-015
lhumerus -36.3035 -43.4935 96.3857
lradius 98.4288
lwrist -31.17
lhand -52.3129 30.8781
lfingers 7.12502
lthumb -24.8074 59.289
rfemur -92.3363 -60.4347 35.7968
rtibia 135.571
rfoot -29.0985 15.8432
rtoes -17.2551
lfemur -95.8408 19.5343 -21.4808
ltibia 126.658
lfoot -30.3091 -16.005
ltoes -15.38
372
root 2.1411 10.42 -2.07609 12.6464 -6.78643 -4.19805
lowerback 41.0524 8.31116 3.66674
upperback 17.254 11.3561 6.76943
thorax -0.975788 5.23715 1.32917
lowerneck -5.11138 -6.95908 0.535708
upperneck 27.1328 -6.15468 -13.3571
head 8.79599 -3.90653 -5.1747
rclavicle 4.77083e-014 4.29375e-014
rhumerus 25.4931 -2.80286 -78.006
rradius 30.4558
rwrist 0.0445564
rhand -47.5357 18.8142
rfingers 7.12502
rthumb -20.2222 -10.1532
lclavicle 4.77083e-014 4.29375e-014
lhumerus -36.3636 -43.6919 96.5141
lradius 98.383
lwrist -31.0987
lhand -52.2669 30.5968
lfingers 7.12502
lthumb -24.7633 59.0137
rfemur -92.4311 -60.1716 35.8722
rtibia 135.44
rfoot -29.1158 15.6956
rtoes -17.4626
lfemur -95.9046 19.364 -21.5608
ltibia 126.475
lfoot -30.3453 -15.8237
ltoes -15.7353
373
root 2.13846 10.4383 -2.07683 12.7902 -6.84546 -4.05578
lowerback 40.8861 8.33924 3.46727
upperback 17.2556 11.3122 6.70858
thorax -0.946784 5.21216 1.38892
lowerneck -4.98484 -6.90676 0.348231
upperneck 27.0222 -6.10426 -13.1956
head 8.7548 -3.88157 -5.07172
rclavicle 9.54166e-015 -1.59028e-015
rhumerus 25.7823 -2.54044 -78.0351
rradius 30.149
rwrist -0.33134
rhand -47.9577 18.1934
rfingers 7.12502
rthumb -20.6277 -10.7305
lclavicle 9.54166e-015 -1.59028e-015
lhumerus -36.383 -43.6545 96.4984
lradius 98.5093
lwrist -30.8136
lhand -52.1097 30.7612
lfingers 7.12502
lthumb -24.6127 59.1988
rfemur -92.6004 -59.9223 35.8542
rtibia 135.31
rfoot -29.0187 15.7465
rtoes -17.398
lfemur -95.8907 19.2522 -21.7615
ltibia 126.27
lfoot -30.4931 -15.4495
ltoes -16.5731
374
root 2.13454 10.4626 -2.07858 12.8326 -6.82446 -3.97813
lowerback 40.8761 8.35741 3.37564
upperback 17.2376 11.3037 6.69269
thorax -0.976169 5.2041 1.41754
lowerneck -4.93574 -6.8876 0.40216
upperneck 26.9177 -6.0745 -13.2935
head 8.70454 -3.86961 -5.10336
rclavicle 2.22639e-014 -2.54444e-014
rhumerus 25.8975 -3.6835 -79.0855
rradius 30.4018
rwrist 0.759296
rhand -48.0425 18.7084
rfingers 7.12502
rthumb -20.7092 -10.2067
lclavicle 2.22639e-014 -2.54444e-014
lhumerus -36.3621 -43.6914 96.4998
lradius 98.561
lwrist -30.7112
lhand -51.968 30.9313
lfingers 7.12502
lthumb -24.4768 59.3873
rfemur -92.4291 -59.7321 35.7065
rtibia 135.127
rfoot -28.9227 15.8382
rtoes -17.0622
lfemur -95.7169 19.132 -21.7653
ltibia 126.016
lfoot -30.3971 -15.6743
ltoes -15.5206
375
root 2.12568 10.4899 -2.08084 12.8921 -6.70448 -4.01002
lowerback 40.9332 8.43277 3.39721
upperback 17.1911 11.4137 6.76471
thorax -1.05863 5.25233 1.43263
lowerneck -5.08814 -6.94604 0.559468
upperneck 26.9635 -6.14184 -13.4184
head 8.72977 -3.90157 -5.1869
rclavicle 9.85972e-014 9.54166e-015
rhumerus 26.0408 -4.39654 -79.4553
rradius 30.3489
rwrist 0.987209
rhand -48.4466 19.9037
rfingers 7.12502
rthumb -21.0975 -8.96852
lclavicle 9.85972e-014 9.54166e-015
lhumerus -36.304 -43.8872 96.5676
lradius 98.3911
lwrist -30.9485
lhand -52.1155 31.171
lfingers 7.12502
lthumb -24.6182 59.6078
rfemur -92.0854 -59.4622 35.6299
rtibia 134.904
rfoot -28.8864 15.7583
rtoes -16.874
lfemur -95.5863 19.0517 -21.6304
ltibia 125.756
lfoot -30.2058 -16.0824
ltoes -14.118
376
root 2.11318 10.5167 -2.08091 13.0009 -6.69538 -3.99566
lowerback 40.8354 8.55221 3.24474
upperback 17.1991 11.5045 6.81487
thorax -1.06092 5.287 1.5313
lowerneck -5.24581 -6.97557 0.539539
upperneck 27.0443 -6.17459 -13.3903
head 8.78736 -3.9207 -5.18921
rclavicle -4.77083e-014 1.90833e-014
rhumerus 26.2843 -4.39569 -79.3708
rradius 30.1124
rwrist 0.394419
rhand -48.4619 19.5454
rfingers 7.12502
rthumb -21.1122 -9.32515
lclavicle -4.77083e-014 1.90833e-014
lhumerus -36.2824 -43.8476 96.5786
lradius 98.3693
lwrist -30.9956
lhand -52.3419 31.2935
lfingers 7.12502
lthumb -24.8352 59.7006
rfemur -91.8696 -59.1853 35.6155
rtibia 134.674
rfoot -28.9339 15.6521
rtoes -16.9516
lfemur -95.4988 19.0463 -21.6236
ltibia 125.472
lfoot -30.1635 -16.0901
ltoes -13.9573
377
root 2.10746 10.5401 -2.08437 13.1477 -6.58113 -3.87667
lowerback 40.6253 8.52664 3.20838
upperback 17.204 11.4598 6.7996
thorax -0.996919 5.27079 1.56533
lowerneck -5.00597 -7.02639 0.459644
upperneck 26.9004 -6.26057 -13.3396
head 8.69138 -3.9536 -5.14251
rclavicle 0 1.59028e-014
rhumerus 26.4437 -4.97733 -79.8255
rradius 30.1764
rwrist 0.392178
rhand -47.783 17.9375
rfingers 7.12502
rthumb -20.4599 -11.0045
lclavicle 0 1.59028e-014
lhumerus -36.3734 -43.8324 96.6552
lradius 98.6617
lwrist -30.2318
lhand -51.9549 30.5948
lfingers 7.12502
lthumb -24.4643 59.0525
rfemur -92.0071 -59.1193 35.7275
rtibia 134.473
rfoot -28.9819 15.6702
rtoes -17.1118
lfemur -95.4743 18.7094 -21.717
ltibia 125.152
lfoot -30.0417 -15.8967
ltoes -14.0086
